# xmcd
#
# Track frame offsets:
#        150
#        21225
#        43327
#        75270
#        98392
#        119332
#        142642
#        146110
#        177790
#        203715
#        243525
#
# Disc length: 3322 seconds
#
# Revision: 4
# Processed by: cddbd v1.5.1PL2 Copyright (c) Steve Scherf et al.
# Submitted via: ExactAudioCopy v0.95b3
#
DISCID=890cf80b
DTITLE=Neil Young - Mirror Ball
DYEAR=1995
DGENRE=Rock
TTITLE0=Song X
TTITLE1=Act Of Love
TTITLE2=I'm The Ocean
TTITLE3=Big Green Country
TTITLE4=Truth Be Known
TTITLE5=Downtown
TTITLE6=What Happened Yesterday
TTITLE7=Peace And Love
TTITLE8=Throw Your Hatred Down
TTITLE9=Scenery
TTITLE10=Fallen Angel
EXTD=ID3G: 1
EXTT0=
EXTT1=
EXTT2=
EXTT3=
EXTT4=
EXTT5=
EXTT6=
EXTT7=
EXTT8=
EXTT9=
EXTT10=
PLAYORDER=
